# xmcd
#
# Track frame offsets:
#	182
#	18427
#	47957
#	81962
#	110707
#
# Disc length: 2037 seconds
# Revision: 0
# Processed by: cddbd v1.5.2PL0 Copyright (c) Steve Scherf et al.
# Submitted via: dBpowerAMP V12.0
#
DISCID=3d07f305
DTITLE=Cathy Dennis - Just Another Dream
DYEAR=1990
DGENRE=House
TTITLE0=Just Another Dream [7"]
TTITLE1=Just Another Dream [Club Mix]
TTITLE2=Just Another Dream [The Dream Mix]
TTITLE3=Just Another Dream [Paul Simpson U. S. Remix]
TTITLE4=Just Another Dream [Funky Love Mix]
EXTD=
EXTT0=
EXTT1=
EXTT2=
EXTT3=
EXTT4=
PLAYORDER=
